<?xml version="1.0" standalone="no"?>
<!DOCTYPE svg PUBLIC "-//W3C//DTD SVG 20010904//EN"
 "http://www.w3.org/TR/2001/REC-SVG-20010904/DTD/svg10.dtd">
<svg version="1.0" xmlns="http://www.w3.org/2000/svg"
 width="256.000000pt" height="256.000000pt" viewBox="0 0 256.000000 256.000000"
 preserveAspectRatio="xMidYMid meet">

<g transform="translate(0.000000,256.000000) scale(0.100000,-0.100000)"
fill="#000000" stroke="none">
<path d="M1123 2056 c-103 -33 -214 -125 -305 -251 -76 -104 -93 -120 -206
-197 -56 -39 -118 -88 -137 -111 -69 -80 -100 -222 -75 -340 12 -62 75 -197
91 -197 5 0 20 7 32 14 44 30 115 38 215 25 111 -14 155 -5 201 42 l31 31 0
-39 c0 -21 3 -47 6 -58 5 -18 -2 -22 -56 -33 -79 -17 -341 -148 -403 -202 -30
-27 -47 -50 -47 -65 0 -13 -16 -47 -36 -76 -86 -128 -159 -309 -194 -479 -24
-117 -24 -120 -6 -120 9 0 19 29 30 93 30 164 100 342 184 473 22 33 46 63 53
66 8 3 57 -3 109 -13 52 -10 116 -20 143 -24 l47 -6 -36 -62 c-19 -34 -53
-100 -75 -146 l-40 -83 66 -139 c36 -76 65 -143 65 -149 0 -6 58 -10 169 -10
l168 0 7 61 c15 153 1 400 -35 603 -11 59 -18 110 -16 112 2 2 28 0 57 -6 76
-14 154 -12 228 6 35 9 66 14 69 10 21 -20 53 -400 53 -628 l0 -158 74 0 74 0
21 54 c12 29 52 98 87 152 36 54 66 109 66 122 0 12 -23 59 -51 104 -29 44
-51 88 -49 97 4 24 125 80 188 87 53 6 57 5 106 -34 35 -27 61 -61 87 -110
l38 -71 -7 -118 c-7 -121 0 -169 33 -245 9 -21 22 -38 29 -38 9 0 6 15 -11 52
-26 58 -45 210 -28 221 5 4 24 -37 42 -91 37 -111 75 -182 98 -182 15 0 15 2
1 18 -72 80 -127 303 -143 577 -13 207 -38 303 -115 434 -33 57 -41 82 -45
135 -3 36 -12 104 -20 152 -16 90 -12 112 16 91 30 -23 53 -70 64 -131 8 -45
16 -62 28 -64 37 -7 67 29 126 151 66 134 115 217 130 217 8 0 -13 -113 -35
-187 -11 -40 4 -25 36 36 18 33 54 83 80 113 42 46 49 50 50 30 0 -23 -48
-127 -82 -175 -11 -15 -18 -32 -16 -39 2 -6 18 12 36 39 45 70 102 127 114
115 7 -7 -10 -48 -51 -122 -34 -62 -60 -117 -58 -123 2 -6 27 13 56 42 37 37
56 50 64 42 10 -10 -26 -73 -148 -262 -104 -159 -109 -198 -50 -330 57 -127
123 -326 140 -425 17 -96 13 -214 -10 -292 l-13 -43 25 3 c36 4 56 61 56 158
0 65 -6 103 -29 178 -3 9 1 6 10 -8 23 -39 39 -146 35 -243 -3 -60 -1 -87 7
-87 27 0 32 153 9 256 -9 36 -35 105 -59 153 -24 47 -52 111 -64 141 -12 30
-44 114 -73 185 -62 159 -63 194 -3 282 103 155 194 309 194 330 0 28 -26 41
-51 25 -10 -7 -21 -12 -23 -12 -3 0 12 31 32 70 30 56 35 72 26 87 -7 10 -21
17 -33 16 -17 -2 -20 1 -15 25 4 19 1 32 -9 41 -21 17 -45 3 -96 -56 l-40 -47
9 39 c13 54 12 62 -5 69 -29 11 -72 -44 -134 -168 -33 -69 -61 -130 -61 -135
0 -12 -56 -71 -67 -71 -5 0 -15 28 -21 62 -18 99 -79 170 -117 138 -19 -16
-19 -39 4 -151 10 -52 17 -110 14 -129 -4 -28 8 -61 63 -170 73 -148 85 -200
98 -410 l6 -105 -21 38 c-20 38 -105 127 -121 127 -4 0 -8 15 -8 33 0 28 -10
43 -57 89 -32 30 -80 67 -108 83 -27 16 -51 29 -53 30 -1 1 11 26 28 56 57
105 50 189 -32 346 -66 127 -68 162 -15 291 20 50 37 105 37 120 0 100 -87
207 -217 267 -43 20 -87 41 -98 48 -119 67 -129 71 -210 74 -49 2 -96 -3 -122
-11z m399 -253 c53 -60 93 -214 78 -293 -5 -25 -9 -81 -10 -125 -1 -131 -74
-295 -154 -344 -51 -32 -152 -31 -216 2 -50 26 -64 23 -33 -8 28 -28 89 -64
158 -91 53 -21 65 -30 65 -48 0 -34 -42 -49 -156 -54 -74 -3 -116 0 -156 12
-50 14 -56 19 -75 63 -22 50 -47 192 -37 216 6 17 -24 168 -37 181 -5 6 -16 3
-27 -7 -30 -28 -68 -21 -94 15 -32 46 -37 150 -9 196 36 57 82 37 111 -48 l19
-55 0 42 c2 100 34 134 154 163 109 26 273 103 341 159 55 47 57 47 78 24z
m-102 -968 c0 -19 -35 -33 -114 -47 -89 -16 -269 13 -252 41 3 4 38 2 78 -6
82 -16 182 -11 244 11 21 8 40 15 42 15 1 1 2 -6 2 -14z"/>
<path d="M1190 1550 c-21 -21 -26 -40 -12 -40 5 0 17 9 27 20 22 24 33 25 57
3 23 -20 33 -12 18 16 -14 27 -63 28 -90 1z"/>
<path d="M1484 1531 c-66 -49 -78 -89 -54 -176 7 -25 10 -49 6 -52 -4 -4 -22
-7 -41 -7 -41 0 -46 -13 -10 -22 16 -4 35 0 51 11 23 15 25 21 20 53 -19 102
-19 110 3 146 12 20 25 35 29 34 4 -1 15 2 26 7 11 5 26 3 38 -4 27 -17 35 -5
13 19 -24 27 -34 25 -81 -9z"/>
<path d="M885 1468 c23 -34 20 -56 -5 -33 -11 10 -22 16 -25 13 -3 -3 4 -13
15 -23 14 -13 17 -22 10 -35 -7 -13 -5 -24 10 -42 11 -12 19 -18 20 -11 0 6
-4 15 -10 18 -15 9 -12 25 5 25 29 0 10 92 -22 104 -11 5 -11 1 2 -16z"/>
<path d="M1216 1464 c-10 -25 -7 -51 7 -62 24 -20 53 22 42 59 -8 23 -41 25
-49 3z"/>
<path d="M1510 1455 c-15 -18 -5 -65 15 -65 23 0 38 36 25 60 -13 24 -23 25
-40 5z"/>
<path d="M1365 1203 c-38 -2 -74 -8 -79 -13 -28 -28 41 -100 95 -100 38 0 92
34 102 64 10 31 -5 57 -32 54 -9 -1 -47 -4 -86 -5z m103 -35 c4 -23 -45 -58
-84 -58 -40 0 -90 39 -81 63 9 23 160 19 165 -5z"/>
<path d="M2208 1260 c-3 -8 -9 -44 -12 -80 -3 -36 -8 -78 -11 -95 -4 -26 -2
-24 15 13 16 33 20 58 18 110 -2 37 -6 60 -10 52z"/>
<path d="M2273 1157 c-13 -5 -23 -13 -23 -18 0 -10 39 1 46 13 9 15 1 16 -23
5z"/>
<path d="M2230 945 c-7 -8 -21 -15 -31 -15 -11 0 -19 -4 -19 -10 0 -15 33 -12
58 6 22 15 29 34 13 34 -5 0 -14 -7 -21 -15z"/>
<path d="M602 288 c-15 -19 -21 -49 -36 -175 -9 -87 -10 -113 0 -113 14 0 24
32 24 76 0 17 7 72 16 123 16 94 15 112 -4 89z"/>
<path d="M1895 243 c4 -16 18 -75 30 -132 24 -104 30 -119 41 -108 7 6 -30
199 -46 241 -13 36 -34 34 -25 -1z"/>
</g>
</svg>
